HIERARCHY
ROOT Hips
{
	OFFSET -0.001795 -0.223333 0.028219
	CHANNELS 6 Xposition Yposition Zposition Zrotation Yrotation Xrotation 
	JOINT LeftUpLeg
	{
		OFFSET 0.069520 -0.091406 -0.006815
		CHANNELS 3 Zrotation Yrotation Xrotation
		JOINT LeftLeg
		{
			OFFSET 0.034277 -0.375199 -0.004496
			CHANNELS 3 Zrotation Yrotation Xrotation
			JOINT LeftFoot
			{
				OFFSET -0.013596 -0.397961 -0.043693
				CHANNELS 3 Zrotation Yrotation Xrotation
				JOINT LeftToe
				{
					OFFSET 0.026358 -0.055791 0.119288
					CHANNELS 3 Zrotation Yrotation Xrotation
					End Site
					{
						OFFSET 0.000000 0.000000 0.000000
					}
				}
			}
		}
	}
	JOINT RightUpLeg
	{
		OFFSET -0.067670 -0.090522 -0.004320
		CHANNELS 3 Zrotation Yrotation Xrotation
		JOINT RightLeg
		{
			OFFSET -0.038290 -0.382569 -0.008850
			CHANNELS 3 Zrotation Yrotation Xrotation
			JOINT RightFoot
			{
				OFFSET 0.015774 -0.398415 -0.042312
				CHANNELS 3 Zrotation Yrotation Xrotation
				JOINT RightToe
				{
					OFFSET -0.025372 -0.048144 0.123348
					CHANNELS 3 Zrotation Yrotation Xrotation
					End Site
					{
						OFFSET 0.000000 0.000000 0.000000
					}
				}
			}
		}
	}
	JOINT Spine
	{
		OFFSET -0.002533 0.108963 -0.026696
		CHANNELS 3 Zrotation Yrotation Xrotation
		JOINT Spine1
		{
			OFFSET 0.005487 0.135180 0.001092
			CHANNELS 3 Zrotation Yrotation Xrotation
			JOINT Spine2
			{
				OFFSET 0.001457 0.052922 0.025425
				CHANNELS 3 Zrotation Yrotation Xrotation
				JOINT Neck
				{
					OFFSET -0.002778 0.213870 -0.042857
					CHANNELS 3 Zrotation Yrotation Xrotation
					JOINT Head
					{
						OFFSET 0.005152 0.064970 0.051349
						CHANNELS 3 Zrotation Yrotation Xrotation
						End Site
						{
							OFFSET 0.000000 0.000000 0.000000
						}
					}
				}
				JOINT LeftShoulder
				{
					OFFSET 0.078845 0.121749 -0.034090
					CHANNELS 3 Zrotation Yrotation Xrotation
					JOINT LeftArm
					{
						OFFSET 0.090977 0.030469 -0.008868
						CHANNELS 3 Zrotation Yrotation Xrotation
						JOINT LeftForeArm
						{
							OFFSET 0.259612 -0.012772 -0.027456
							CHANNELS 3 Zrotation Yrotation Xrotation
							JOINT LeftHand
							{
								OFFSET 0.249234 0.008986 -0.001171
								CHANNELS 3 Zrotation Yrotation Xrotation
								End Site
								{
									OFFSET 0.000000 0.000000 0.000000
								}
							}
						}
					}
				}
				JOINT RightShoulder
				{
					OFFSET -0.081759 0.118833 -0.038615
					CHANNELS 3 Zrotation Yrotation Xrotation
					JOINT RightArm
					{
						OFFSET -0.096012 0.032551 -0.009143
						CHANNELS 3 Zrotation Yrotation Xrotation
						JOINT RightForeArm
						{
							OFFSET -0.253742 -0.013329 -0.021401
							CHANNELS 3 Zrotation Yrotation Xrotation
							JOINT RightHand
							{
								OFFSET -0.255298 0.007772 -0.005559
								CHANNELS 3 Zrotation Yrotation Xrotation
								End Site
								{
									OFFSET 0.000000 0.000000 0.000000
								}
							}
						}
					}
				}
			}
		}
	}
}
MOTION
Frames: 18
Frame Time: 0.050000
1.238562 0.876279 0.353089 1.318293 12.254469 0.020851 18.291240 0.123587 -21.756255 0.953150 -1.789667 22.919941 -3.675981 0.569816 13.486592 0.000000 0.000000 0.000000 -14.214379 -0.473037 -7.203525 -10.834547 5.063452 42.347212 2.027068 1.811608 7.501723 0.000000 0.000000 0.000000 -4.700920 -0.146399 11.721641 4.659854 -1.958363 -2.817647 3.747068 -6.876501 2.317577 -5.649846 4.330110 -19.831250 0.000000 0.000000 0.000000 -31.629799 1.401294 -3.604965 -36.231538 -5.370743 -2.902347 -7.259019 -33.745575 3.606306 0.000000 0.000000 0.000000 26.775916 -1.387883 -4.166806 42.672155 -7.843290 -6.359731 -10.329766 44.784274 -2.786119 0.000000 0.000000 0.000000 
1.319874 0.866995 0.365009 1.657191 14.678860 -1.843294 13.917784 -0.568744 -23.835950 -1.342613 -2.326046 32.859677 -1.615604 -1.678164 2.726037 0.000000 0.000000 0.000000 -13.917446 -0.733371 -9.566547 -12.463870 6.003287 51.825561 1.174642 -1.337315 11.359978 0.000000 0.000000 0.000000 -4.831258 -0.287597 14.177304 5.977374 -2.586906 -2.753311 4.227890 -8.640145 1.791581 -5.634266 4.240118 -20.663271 0.000000 0.000000 0.000000 -33.845964 -0.524210 -2.139178 -32.437336 -6.179741 -2.558213 -7.332322 -30.377994 3.239639 0.000000 0.000000 0.000000 24.896796 1.588873 -2.405135 43.260021 -5.894486 -5.747962 -7.439454 43.735487 -1.742523 0.000000 0.000000 0.000000 
1.379670 0.879829 0.373145 2.191562 13.804834 -2.477718 9.611459 -0.967194 -21.252313 -1.887374 -2.035800 32.659342 -0.356407 -0.044357 1.174905 0.000000 0.000000 0.000000 -10.705081 -0.356787 -13.261127 -12.655562 6.784834 58.306925 1.658528 0.673206 7.843072 0.000000 0.000000 0.000000 -4.454896 -0.333911 14.571483 6.422289 -3.160662 -0.210137 3.777982 -7.386144 -0.161344 -6.586909 4.798641 -20.938143 0.000000 0.000000 0.000000 -33.943147 -2.296890 -1.270733 -31.394329 -5.911921 -2.337158 -5.741097 -28.842253 2.598014 0.000000 0.000000 0.000000 25.809859 3.969974 -0.950111 41.877326 -2.693835 -4.386533 -5.950533 41.524179 -1.060513 0.000000 0.000000 0.000000 
1.423054 0.907208 0.378978 2.162230 13.827716 -2.530306 6.999852 -0.952331 -16.187587 -1.658827 -1.497946 26.468623 -1.617127 -1.999651 2.157357 0.000000 0.000000 0.000000 -7.356638 0.156961 -15.545318 -8.383920 3.730794 58.336851 1.661115 3.428240 1.532122 0.000000 0.000000 0.000000 -3.330040 -0.446099 14.337497 6.367009 -3.042321 -0.842176 2.840915 -8.420957 0.592489 -5.640611 4.219741 -22.180781 0.000000 0.000000 0.000000 -33.040206 -2.806380 -0.504153 -32.506586 -5.763987 -2.575827 -5.023972 -29.632754 2.533080 0.000000 0.000000 0.000000 25.849207 4.338700 -0.937373 40.943613 0.348089 -3.291205 -1.804597 39.816653 0.364740 0.000000 0.000000 0.000000 
1.455748 0.933357 0.383110 1.858541 13.795232 -0.880915 5.517636 -0.811995 -12.054534 -1.446621 -0.785074 17.663373 -3.493136 -3.583913 5.272275 0.000000 0.000000 0.000000 -2.651359 0.996581 -17.413456 -2.285682 -0.274361 51.174860 -0.329944 2.639376 -7.881673 0.000000 0.000000 0.000000 -2.598121 -0.435595 12.878157 6.947574 -3.286449 -1.068698 1.678827 -9.018586 -0.235182 -4.958679 3.821620 -21.865237 0.000000 0.000000 0.000000 -31.441222 -1.734456 -1.091366 -34.255054 -5.508224 -2.690792 -5.840753 -31.194497 2.933951 0.000000 0.000000 0.000000 25.905768 4.815471 -0.760256 41.780088 0.147493 -3.310542 0.334349 40.011811 1.076373 0.000000 0.000000 0.000000 
1.480296 0.952701 0.386522 1.774205 13.836830 0.696531 4.957192 -0.657790 -9.040353 -1.752107 -0.245625 10.294417 -6.556241 -6.276245 9.618338 0.000000 0.000000 0.000000 -0.422463 1.372521 -17.614395 2.047749 -2.058719 41.260278 -0.431273 1.786391 -7.262348 0.000000 0.000000 0.000000 -2.462236 -0.390203 11.997433 7.300650 -3.413194 -1.299458 0.493941 -8.985156 -1.179570 -3.277729 2.940214 -20.100715 0.000000 0.000000 0.000000 -30.494463 -1.359230 -1.498755 -35.628631 -5.686800 -2.572914 -7.660384 -31.668588 3.470763 0.000000 0.000000 0.000000 27.606134 4.532687 -0.992913 41.079549 0.653902 -3.009759 -0.071100 39.047517 0.957380 0.000000 0.000000 0.000000 
1.499189 0.962252 0.390065 1.681863 14.526631 1.287674 3.870179 -0.563300 -7.079218 -1.141357 -0.162883 6.634108 -8.195705 -7.897943 11.311037 0.000000 0.000000 0.000000 1.483196 1.492920 -15.374603 0.996965 -1.021553 33.394610 -0.649570 0.031216 -5.196749 0.000000 0.000000 0.000000 -2.232562 -0.390215 11.480877 6.911911 -3.111106 -2.011380 -0.278965 -8.917043 -1.008111 -1.874841 2.225178 -19.255072 0.000000 0.000000 0.000000 -30.393808 -1.918033 -1.398643 -35.848993 -5.631384 -2.511997 -7.974838 -30.743107 3.404664 0.000000 0.000000 0.000000 28.519356 3.559403 -1.429558 41.505116 0.626658 -3.130058 0.971649 37.473561 1.327052 0.000000 0.000000 0.000000 
1.513715 0.964171 0.393500 1.318102 14.605794 1.547194 3.596429 -0.490059 -5.913091 -1.964495 0.012581 4.949155 -7.483744 -6.983952 10.772824 0.000000 0.000000 0.000000 2.819713 1.414893 -12.570097 0.674937 -0.391492 24.858470 -1.555963 -3.647051 -1.635641 0.000000 0.000000 0.000000 -2.074446 -0.356761 10.534018 6.268842 -2.881571 -1.410328 -0.208520 -8.776325 -1.381874 -2.121940 2.364471 -18.891562 0.000000 0.000000 0.000000 -29.900112 -1.555423 -1.687962 -35.969582 -6.308986 -2.279448 -10.110973 -31.652192 4.104549 0.000000 0.000000 0.000000 29.654754 2.358991 -2.278751 40.765786 0.726461 -3.023492 2.980013 37.211982 1.971312 0.000000 0.000000 0.000000 
1.524951 0.963263 0.396390 1.183817 14.326852 1.899597 2.634177 -0.445323 -5.233820 -1.036982 -0.040679 3.569490 -7.562151 -7.301769 10.539350 0.000000 0.000000 0.000000 3.718535 1.176218 -9.489382 -0.479053 0.231378 17.697304 -2.557844 -6.552731 -0.502558 0.000000 0.000000 0.000000 -2.803703 -0.210694 8.843745 5.885984 -2.666740 -1.607130 -0.008342 -8.874266 -0.476786 -1.853295 2.194729 -18.912273 0.000000 0.000000 0.000000 -30.227119 -1.708260 -1.497125 -35.725782 -6.203530 -2.384744 -10.887200 -31.334864 4.298882 0.000000 0.000000 0.000000 30.301338 3.342648 -1.733251 40.279942 0.564640 -3.077215 3.245129 34.940835 1.928275 0.000000 0.000000 0.000000 
1.533976 0.962357 0.398718 0.831842 13.423605 2.308863 2.048318 -0.418657 -4.878565 -0.450069 -0.039403 2.034247 -7.217287 -6.259779 11.262622 0.000000 0.000000 0.000000 3.846503 0.909523 -7.168006 -0.933635 0.408200 12.362479 -2.476805 -6.489316 0.392186 0.000000 0.000000 0.000000 -3.029957 -0.138664 7.581333 5.491938 -2.450472 -1.800567 0.045172 -8.249224 0.195356 -2.324039 2.493259 -19.437816 0.000000 0.000000 0.000000 -29.946746 -1.001694 -2.017630 -37.214304 -6.827046 -2.304007 -11.246334 -30.830239 4.320751 0.000000 0.000000 0.000000 30.887749 3.175743 -1.769209 39.812409 0.992820 -2.981914 4.167023 33.120289 2.109670 0.000000 0.000000 0.000000 
1.541155 0.961773 0.400900 0.642758 12.522274 2.296017 1.794506 -0.342057 -3.897333 0.057592 -0.010041 0.081203 -7.986335 -6.657201 12.799000 0.000000 0.000000 0.000000 3.447183 0.700005 -5.613010 -1.086302 0.416783 9.022265 -1.958278 -5.413261 1.717104 0.000000 0.000000 0.000000 -3.042555 -0.099914 6.463157 4.950221 -2.199687 -1.764410 0.014361 -7.925557 0.654063 -1.787890 2.183704 -19.282708 0.000000 0.000000 0.000000 -29.823746 -0.576997 -2.237866 -38.462981 -5.664772 -2.747639 -11.325529 -30.253958 4.267561 0.000000 0.000000 0.000000 30.952448 2.606415 -2.180116 40.214110 1.205530 -2.969203 4.257637 31.455265 2.018817 0.000000 0.000000 0.000000 
1.547267 0.962119 0.403577 0.376709 11.681422 2.324683 1.587962 -0.256940 -2.803211 0.690293 0.034713 -2.413728 -8.955166 -6.735487 15.299541 0.000000 0.000000 0.000000 2.736013 0.514156 -4.286127 -0.779967 0.289129 5.685434 -1.010188 -3.624117 3.984268 0.000000 0.000000 0.000000 -2.674545 -0.077303 5.012499 3.939752 -1.801235 -1.040814 -0.068104 -7.721326 0.644089 -1.435188 1.905637 -17.795493 0.000000 0.000000 0.000000 -29.441698 0.327418 -2.722338 -39.576120 -4.184126 -3.280803 -11.665956 -29.269325 4.222660 0.000000 0.000000 0.000000 31.061805 1.770120 -2.849107 40.688596 0.472612 -3.203718 6.019107 30.681361 2.398796 0.000000 0.000000 0.000000 
1.552629 0.962286 0.406533 0.089564 11.259100 2.557036 1.425541 -0.201285 -2.090856 0.944364 0.064484 -3.665848 -8.770330 -6.498294 15.284867 0.000000 0.000000 0.000000 2.364788 0.397590 -3.400503 -0.764794 0.193003 2.593134 -0.215107 -2.521284 6.756621 0.000000 0.000000 0.000000 -2.639685 -0.032898 3.258647 3.497672 -1.626701 -0.676414 -0.222227 -7.700802 1.097274 -1.283016 1.767203 -16.951053 0.000000 0.000000 0.000000 -28.885328 1.392748 -3.292485 -40.692601 -2.830315 -3.830562 -11.789526 -28.075739 4.087660 0.000000 0.000000 0.000000 30.790341 1.201522 -3.234633 42.107109 -0.237245 -3.575546 6.206184 29.580086 2.345121 0.000000 0.000000 0.000000 
1.557613 0.961831 0.409180 -0.220806 10.549000 2.696071 0.938096 -0.114219 -1.098617 1.812761 0.078073 -5.211258 -8.405485 -6.096680 15.120375 0.000000 0.000000 0.000000 1.633164 0.251166 -2.251553 -0.363380 0.007142 -0.951858 1.259042 -0.379333 9.980104 0.000000 0.000000 0.000000 -2.663348 -0.001336 1.863223 3.002362 -1.436654 -0.186292 -0.269564 -7.263630 1.237494 -0.884743 1.488806 -15.799576 0.000000 0.000000 0.000000 -28.747966 1.994849 -3.703089 -40.714128 -1.116340 -4.355326 -11.588097 -27.030648 3.870430 0.000000 0.000000 0.000000 30.887914 0.668126 -3.557354 42.672714 -1.318919 -4.008076 7.255348 28.853437 2.540339 0.000000 0.000000 0.000000 
1.562455 0.960627 0.411101 -0.391403 10.280679 2.708947 0.784131 -0.087953 -0.816183 1.871375 0.083007 -5.403585 -8.145135 -6.044217 14.582620 0.000000 0.000000 0.000000 1.623567 0.197895 -1.802933 -0.917068 -0.012445 -2.727222 1.884144 0.134095 12.215891 0.000000 0.000000 0.000000 -2.914817 0.017369 1.100926 2.801252 -1.348070 -0.092649 -0.403259 -6.946910 1.256434 -0.495407 1.255943 -15.366319 0.000000 0.000000 0.000000 -28.455370 3.029866 -4.418949 -40.808194 0.153809 -4.728855 -11.219489 -25.564174 3.551796 0.000000 0.000000 0.000000 30.379524 -0.086134 -3.893705 43.740217 -2.557619 -4.574681 7.821760 28.379814 2.638888 0.000000 0.000000 0.000000 
1.567588 0.959795 0.412238 -0.633897 9.912297 2.529664 0.698519 -0.053706 -0.411855 1.883363 0.087051 -5.525192 -7.855489 -5.913025 14.105414 0.000000 0.000000 0.000000 1.422589 0.159917 -1.483463 -1.010425 -0.063393 -3.893581 2.579378 0.700113 14.369162 0.000000 0.000000 0.000000 -2.945872 0.022686 0.694657 2.403050 -1.179766 0.180129 -0.388782 -6.806213 1.064887 -0.113006 0.991585 -14.819539 0.000000 0.000000 0.000000 -28.199531 3.580878 -4.724227 -41.213792 0.894054 -4.998061 -9.761027 -23.977244 3.009909 0.000000 0.000000 0.000000 29.727371 -0.494963 -4.099931 44.621272 -2.962904 -4.804855 8.045841 27.026176 2.542485 0.000000 0.000000 0.000000 
1.572976 0.959251 0.413101 -0.769703 9.789169 2.470634 0.547623 -0.053387 -0.469601 1.796367 0.074142 -5.116134 -7.679081 -5.921254 13.648890 0.000000 0.000000 0.000000 1.321381 0.124703 -1.179335 -1.183972 -0.063710 -4.176352 2.641330 0.805607 14.342682 0.000000 0.000000 0.000000 -3.047655 0.028471 0.318472 2.177205 -1.084106 0.341783 -0.472206 -6.790452 0.986070 0.063989 0.874221 -14.670527 0.000000 0.000000 0.000000 -27.953421 4.215277 -5.086701 -41.562573 1.675159 -5.281762 -8.521084 -22.572368 2.578613 0.000000 0.000000 0.000000 29.133972 -1.067182 -4.397352 45.739108 -3.203448 -5.025325 7.574312 26.200686 2.351774 0.000000 0.000000 0.000000 
1.578707 0.958857 0.414028 -1.007150 9.703771 2.470036 0.533578 -0.038155 -0.282288 1.627587 0.088844 -5.281199 -7.582581 -5.933381 13.388557 0.000000 0.000000 0.000000 1.176819 0.109308 -1.041584 -1.120685 -0.075611 -4.293603 2.697436 0.884240 14.384632 0.000000 0.000000 0.000000 -3.173099 0.034512 -0.118582 2.026349 -1.040058 0.676522 -0.393131 -7.064916 0.571821 0.058684 0.817144 -14.109203 0.000000 0.000000 0.000000 -27.688232 4.574548 -5.170177 -41.799073 2.352963 -5.526054 -7.620361 -21.452835 2.285262 0.000000 0.000000 0.000000 28.516143 -0.987303 -4.402289 46.439698 -3.530339 -5.163771 7.516077 25.360944 2.231300 0.000000 0.000000 0.000000 
